M48
; DRILL file {KiCad (7.0.0)} date Sat Mar  4 17:30:11 2023
; FORMAT={-:-/ absolute / metric / decimal}
; #@! TF.CreationDate,2023-03-04T17:30:11+02:00
; #@! TF.GenerationSoftware,Kicad,Pcbnew,(7.0.0)
; #@! TF.FileFunction,Plated,1,2,PTH
FMAT,2
METRIC
; #@! TA.AperFunction,Plated,PTH,ComponentDrill
T1C0.700
; #@! TA.AperFunction,Plated,PTH,ComponentDrill
T2C0.800
; #@! TA.AperFunction,Plated,PTH,ComponentDrill
T3C0.900
; #@! TA.AperFunction,Plated,PTH,ComponentDrill
T4C1.000
; #@! TA.AperFunction,Plated,PTH,ComponentDrill
T5C1.100
; #@! TA.AperFunction,Plated,PTH,ComponentDrill
T6C1.200
; #@! TA.AperFunction,Plated,PTH,ComponentDrill
T7C1.300
; #@! TA.AperFunction,Plated,PTH,ComponentDrill
T8C1.600
; #@! TA.AperFunction,Plated,PTH,ComponentDrill
T9C2.520
; #@! TA.AperFunction,Plated,PTH,ComponentDrill
T10C3.200
%
G90
G05
T1
X137.0Y-100.92
X137.0Y-106.0
X139.54Y-103.46
T2
X103.0Y-62.744
X103.0Y-72.904
X103.0Y-92.75
X105.0Y-92.75
X108.92Y-92.75
X119.0Y-98.92
X119.0Y-109.08
X119.08Y-92.75
X123.0Y-98.92
X123.0Y-109.08
X127.92Y-116.75
X128.0Y-106.5
X128.0Y-109.0
X130.92Y-94.0
X134.92Y-75.0
X134.92Y-80.0
X135.0Y-56.67
X135.0Y-66.83
X138.08Y-116.75
X141.08Y-94.0
X145.08Y-75.0
X145.08Y-80.0
X145.25Y-125.25
X145.25Y-127.75
X183.0Y-70.5
X183.0Y-75.5
X183.25Y-82.0
X183.25Y-87.0
X185.0Y-102.92
X185.0Y-113.08
X185.0Y-123.5
X185.0Y-128.5
T3
X110.486Y-70.369
X110.486Y-72.909
T4
X132.0Y-121.0
X134.54Y-121.0
X139.42Y-58.0
X141.96Y-58.0
X144.5Y-58.0
X150.88Y-92.46
X150.88Y-95.0
X150.88Y-97.54
X183.0Y-58.475
X183.0Y-61.015
X183.0Y-63.555
T5
X97.0Y-62.67
X97.0Y-72.83
X149.73Y-62.0
X149.73Y-64.54
X149.73Y-67.08
X149.73Y-122.92
X149.73Y-125.46
X149.73Y-128.0
T6
X111.99Y-113.802
X115.49Y-113.802
X118.99Y-113.802
X134.056Y-88.264
X137.556Y-88.264
X141.056Y-88.264
X174.0Y-67.0
X174.0Y-87.32
X174.0Y-101.84
X174.0Y-122.16
T7
X85.695Y-66.25
X85.695Y-71.25
X85.695Y-119.25
X85.695Y-124.25
T8
X103.0Y-84.5
X141.975Y-64.0
X142.0Y-53.0
X218.0Y-77.0
T9
X86.0Y-105.0
X86.029Y-84.5
X144.0Y-135.75
X175.75Y-135.75
X195.5Y-135.75
X217.0Y-121.0
T10
X87.88Y-56.6
X87.88Y-133.4
X214.68Y-56.6
X214.68Y-133.4
T0
M30
