%TF.GenerationSoftware,KiCad,Pcbnew,(7.0.0)*%
%TF.CreationDate,2023-03-04T17:30:07+02:00*%
%TF.ProjectId,amplif de putere,616d706c-6966-4206-9465-207075746572,rev?*%
%TF.SameCoordinates,Original*%
%TF.FileFunction,Legend,Top*%
%TF.FilePolarity,Positive*%
%FSLAX46Y46*%
G04 Gerber Fmt 4.6, Leading zero omitted, Abs format (unit mm)*
G04 Created by KiCad (PCBNEW (7.0.0)) date 2023-03-04 17:30:07*
%MOMM*%
%LPD*%
G01*
G04 APERTURE LIST*
%ADD10C,0.150000*%
%ADD11C,0.300000*%
%ADD12C,0.120000*%
G04 APERTURE END LIST*
D10*
X153000000Y-50000000D02*
X168000000Y-50000000D01*
X168000000Y-50000000D02*
X168000000Y-140000000D01*
X168000000Y-140000000D02*
X153000000Y-140000000D01*
X153000000Y-140000000D02*
X153000000Y-50000000D01*
D11*
X170550000Y-53872500D02*
X171264286Y-53872500D01*
X170407143Y-54301071D02*
X170907143Y-52801071D01*
X170907143Y-52801071D02*
X171407143Y-54301071D01*
X171907142Y-54301071D02*
X171907142Y-53301071D01*
X171907142Y-53443928D02*
X171978571Y-53372500D01*
X171978571Y-53372500D02*
X172121428Y-53301071D01*
X172121428Y-53301071D02*
X172335714Y-53301071D01*
X172335714Y-53301071D02*
X172478571Y-53372500D01*
X172478571Y-53372500D02*
X172550000Y-53515357D01*
X172550000Y-53515357D02*
X172550000Y-54301071D01*
X172550000Y-53515357D02*
X172621428Y-53372500D01*
X172621428Y-53372500D02*
X172764285Y-53301071D01*
X172764285Y-53301071D02*
X172978571Y-53301071D01*
X172978571Y-53301071D02*
X173121428Y-53372500D01*
X173121428Y-53372500D02*
X173192857Y-53515357D01*
X173192857Y-53515357D02*
X173192857Y-54301071D01*
X173907142Y-53301071D02*
X173907142Y-54801071D01*
X173907142Y-53372500D02*
X174050000Y-53301071D01*
X174050000Y-53301071D02*
X174335714Y-53301071D01*
X174335714Y-53301071D02*
X174478571Y-53372500D01*
X174478571Y-53372500D02*
X174550000Y-53443928D01*
X174550000Y-53443928D02*
X174621428Y-53586785D01*
X174621428Y-53586785D02*
X174621428Y-54015357D01*
X174621428Y-54015357D02*
X174550000Y-54158214D01*
X174550000Y-54158214D02*
X174478571Y-54229642D01*
X174478571Y-54229642D02*
X174335714Y-54301071D01*
X174335714Y-54301071D02*
X174050000Y-54301071D01*
X174050000Y-54301071D02*
X173907142Y-54229642D01*
X175478571Y-54301071D02*
X175335714Y-54229642D01*
X175335714Y-54229642D02*
X175264285Y-54086785D01*
X175264285Y-54086785D02*
X175264285Y-52801071D01*
X176049999Y-54301071D02*
X176049999Y-53301071D01*
X176049999Y-52801071D02*
X175978571Y-52872500D01*
X175978571Y-52872500D02*
X176049999Y-52943928D01*
X176049999Y-52943928D02*
X176121428Y-52872500D01*
X176121428Y-52872500D02*
X176049999Y-52801071D01*
X176049999Y-52801071D02*
X176049999Y-52943928D01*
X176550000Y-53301071D02*
X177121428Y-53301071D01*
X176764285Y-54301071D02*
X176764285Y-53015357D01*
X176764285Y-53015357D02*
X176835714Y-52872500D01*
X176835714Y-52872500D02*
X176978571Y-52801071D01*
X176978571Y-52801071D02*
X177121428Y-52801071D01*
X177621428Y-54301071D02*
X177621428Y-53301071D01*
X177621428Y-52801071D02*
X177550000Y-52872500D01*
X177550000Y-52872500D02*
X177621428Y-52943928D01*
X177621428Y-52943928D02*
X177692857Y-52872500D01*
X177692857Y-52872500D02*
X177621428Y-52801071D01*
X177621428Y-52801071D02*
X177621428Y-52943928D01*
X178978572Y-54229642D02*
X178835714Y-54301071D01*
X178835714Y-54301071D02*
X178550000Y-54301071D01*
X178550000Y-54301071D02*
X178407143Y-54229642D01*
X178407143Y-54229642D02*
X178335714Y-54158214D01*
X178335714Y-54158214D02*
X178264286Y-54015357D01*
X178264286Y-54015357D02*
X178264286Y-53586785D01*
X178264286Y-53586785D02*
X178335714Y-53443928D01*
X178335714Y-53443928D02*
X178407143Y-53372500D01*
X178407143Y-53372500D02*
X178550000Y-53301071D01*
X178550000Y-53301071D02*
X178835714Y-53301071D01*
X178835714Y-53301071D02*
X178978572Y-53372500D01*
X180264286Y-54301071D02*
X180264286Y-53515357D01*
X180264286Y-53515357D02*
X180192857Y-53372500D01*
X180192857Y-53372500D02*
X180050000Y-53301071D01*
X180050000Y-53301071D02*
X179764286Y-53301071D01*
X179764286Y-53301071D02*
X179621428Y-53372500D01*
X180264286Y-54229642D02*
X180121428Y-54301071D01*
X180121428Y-54301071D02*
X179764286Y-54301071D01*
X179764286Y-54301071D02*
X179621428Y-54229642D01*
X179621428Y-54229642D02*
X179550000Y-54086785D01*
X179550000Y-54086785D02*
X179550000Y-53943928D01*
X179550000Y-53943928D02*
X179621428Y-53801071D01*
X179621428Y-53801071D02*
X179764286Y-53729642D01*
X179764286Y-53729642D02*
X180121428Y-53729642D01*
X180121428Y-53729642D02*
X180264286Y-53658214D01*
X180764286Y-53301071D02*
X181335714Y-53301071D01*
X180978571Y-52801071D02*
X180978571Y-54086785D01*
X180978571Y-54086785D02*
X181050000Y-54229642D01*
X181050000Y-54229642D02*
X181192857Y-54301071D01*
X181192857Y-54301071D02*
X181335714Y-54301071D01*
X182050000Y-54301071D02*
X181907143Y-54229642D01*
X181907143Y-54229642D02*
X181835714Y-54158214D01*
X181835714Y-54158214D02*
X181764286Y-54015357D01*
X181764286Y-54015357D02*
X181764286Y-53586785D01*
X181764286Y-53586785D02*
X181835714Y-53443928D01*
X181835714Y-53443928D02*
X181907143Y-53372500D01*
X181907143Y-53372500D02*
X182050000Y-53301071D01*
X182050000Y-53301071D02*
X182264286Y-53301071D01*
X182264286Y-53301071D02*
X182407143Y-53372500D01*
X182407143Y-53372500D02*
X182478572Y-53443928D01*
X182478572Y-53443928D02*
X182550000Y-53586785D01*
X182550000Y-53586785D02*
X182550000Y-54015357D01*
X182550000Y-54015357D02*
X182478572Y-54158214D01*
X182478572Y-54158214D02*
X182407143Y-54229642D01*
X182407143Y-54229642D02*
X182264286Y-54301071D01*
X182264286Y-54301071D02*
X182050000Y-54301071D01*
X183192857Y-54301071D02*
X183192857Y-53301071D01*
X183192857Y-53586785D02*
X183264286Y-53443928D01*
X183264286Y-53443928D02*
X183335715Y-53372500D01*
X183335715Y-53372500D02*
X183478572Y-53301071D01*
X183478572Y-53301071D02*
X183621429Y-53301071D01*
X185664286Y-54301071D02*
X185664286Y-52801071D01*
X185664286Y-54229642D02*
X185521428Y-54301071D01*
X185521428Y-54301071D02*
X185235714Y-54301071D01*
X185235714Y-54301071D02*
X185092857Y-54229642D01*
X185092857Y-54229642D02*
X185021428Y-54158214D01*
X185021428Y-54158214D02*
X184950000Y-54015357D01*
X184950000Y-54015357D02*
X184950000Y-53586785D01*
X184950000Y-53586785D02*
X185021428Y-53443928D01*
X185021428Y-53443928D02*
X185092857Y-53372500D01*
X185092857Y-53372500D02*
X185235714Y-53301071D01*
X185235714Y-53301071D02*
X185521428Y-53301071D01*
X185521428Y-53301071D02*
X185664286Y-53372500D01*
X186950000Y-54229642D02*
X186807143Y-54301071D01*
X186807143Y-54301071D02*
X186521429Y-54301071D01*
X186521429Y-54301071D02*
X186378571Y-54229642D01*
X186378571Y-54229642D02*
X186307143Y-54086785D01*
X186307143Y-54086785D02*
X186307143Y-53515357D01*
X186307143Y-53515357D02*
X186378571Y-53372500D01*
X186378571Y-53372500D02*
X186521429Y-53301071D01*
X186521429Y-53301071D02*
X186807143Y-53301071D01*
X186807143Y-53301071D02*
X186950000Y-53372500D01*
X186950000Y-53372500D02*
X187021429Y-53515357D01*
X187021429Y-53515357D02*
X187021429Y-53658214D01*
X187021429Y-53658214D02*
X186307143Y-53801071D01*
X188564285Y-53301071D02*
X188564285Y-54801071D01*
X188564285Y-53372500D02*
X188707143Y-53301071D01*
X188707143Y-53301071D02*
X188992857Y-53301071D01*
X188992857Y-53301071D02*
X189135714Y-53372500D01*
X189135714Y-53372500D02*
X189207143Y-53443928D01*
X189207143Y-53443928D02*
X189278571Y-53586785D01*
X189278571Y-53586785D02*
X189278571Y-54015357D01*
X189278571Y-54015357D02*
X189207143Y-54158214D01*
X189207143Y-54158214D02*
X189135714Y-54229642D01*
X189135714Y-54229642D02*
X188992857Y-54301071D01*
X188992857Y-54301071D02*
X188707143Y-54301071D01*
X188707143Y-54301071D02*
X188564285Y-54229642D01*
X190564286Y-53301071D02*
X190564286Y-54301071D01*
X189921428Y-53301071D02*
X189921428Y-54086785D01*
X189921428Y-54086785D02*
X189992857Y-54229642D01*
X189992857Y-54229642D02*
X190135714Y-54301071D01*
X190135714Y-54301071D02*
X190350000Y-54301071D01*
X190350000Y-54301071D02*
X190492857Y-54229642D01*
X190492857Y-54229642D02*
X190564286Y-54158214D01*
X191064286Y-53301071D02*
X191635714Y-53301071D01*
X191278571Y-52801071D02*
X191278571Y-54086785D01*
X191278571Y-54086785D02*
X191350000Y-54229642D01*
X191350000Y-54229642D02*
X191492857Y-54301071D01*
X191492857Y-54301071D02*
X191635714Y-54301071D01*
X192707143Y-54229642D02*
X192564286Y-54301071D01*
X192564286Y-54301071D02*
X192278572Y-54301071D01*
X192278572Y-54301071D02*
X192135714Y-54229642D01*
X192135714Y-54229642D02*
X192064286Y-54086785D01*
X192064286Y-54086785D02*
X192064286Y-53515357D01*
X192064286Y-53515357D02*
X192135714Y-53372500D01*
X192135714Y-53372500D02*
X192278572Y-53301071D01*
X192278572Y-53301071D02*
X192564286Y-53301071D01*
X192564286Y-53301071D02*
X192707143Y-53372500D01*
X192707143Y-53372500D02*
X192778572Y-53515357D01*
X192778572Y-53515357D02*
X192778572Y-53658214D01*
X192778572Y-53658214D02*
X192064286Y-53801071D01*
X193421428Y-54301071D02*
X193421428Y-53301071D01*
X193421428Y-53586785D02*
X193492857Y-53443928D01*
X193492857Y-53443928D02*
X193564286Y-53372500D01*
X193564286Y-53372500D02*
X193707143Y-53301071D01*
X193707143Y-53301071D02*
X193850000Y-53301071D01*
X194921428Y-54229642D02*
X194778571Y-54301071D01*
X194778571Y-54301071D02*
X194492857Y-54301071D01*
X194492857Y-54301071D02*
X194349999Y-54229642D01*
X194349999Y-54229642D02*
X194278571Y-54086785D01*
X194278571Y-54086785D02*
X194278571Y-53515357D01*
X194278571Y-53515357D02*
X194349999Y-53372500D01*
X194349999Y-53372500D02*
X194492857Y-53301071D01*
X194492857Y-53301071D02*
X194778571Y-53301071D01*
X194778571Y-53301071D02*
X194921428Y-53372500D01*
X194921428Y-53372500D02*
X194992857Y-53515357D01*
X194992857Y-53515357D02*
X194992857Y-53658214D01*
X194992857Y-53658214D02*
X194278571Y-53801071D01*
X196535713Y-54301071D02*
X196535713Y-53301071D01*
X196535713Y-52801071D02*
X196464285Y-52872500D01*
X196464285Y-52872500D02*
X196535713Y-52943928D01*
X196535713Y-52943928D02*
X196607142Y-52872500D01*
X196607142Y-52872500D02*
X196535713Y-52801071D01*
X196535713Y-52801071D02*
X196535713Y-52943928D01*
X197249999Y-53301071D02*
X197249999Y-54301071D01*
X197249999Y-53443928D02*
X197321428Y-53372500D01*
X197321428Y-53372500D02*
X197464285Y-53301071D01*
X197464285Y-53301071D02*
X197678571Y-53301071D01*
X197678571Y-53301071D02*
X197821428Y-53372500D01*
X197821428Y-53372500D02*
X197892857Y-53515357D01*
X197892857Y-53515357D02*
X197892857Y-54301071D01*
X200150000Y-54229642D02*
X200007142Y-54301071D01*
X200007142Y-54301071D02*
X199721428Y-54301071D01*
X199721428Y-54301071D02*
X199578571Y-54229642D01*
X199578571Y-54229642D02*
X199507142Y-54158214D01*
X199507142Y-54158214D02*
X199435714Y-54015357D01*
X199435714Y-54015357D02*
X199435714Y-53586785D01*
X199435714Y-53586785D02*
X199507142Y-53443928D01*
X199507142Y-53443928D02*
X199578571Y-53372500D01*
X199578571Y-53372500D02*
X199721428Y-53301071D01*
X199721428Y-53301071D02*
X200007142Y-53301071D01*
X200007142Y-53301071D02*
X200150000Y-53372500D01*
X201007142Y-54301071D02*
X200864285Y-54229642D01*
X200864285Y-54229642D02*
X200792856Y-54086785D01*
X200792856Y-54086785D02*
X200792856Y-52801071D01*
X202221428Y-54301071D02*
X202221428Y-53515357D01*
X202221428Y-53515357D02*
X202149999Y-53372500D01*
X202149999Y-53372500D02*
X202007142Y-53301071D01*
X202007142Y-53301071D02*
X201721428Y-53301071D01*
X201721428Y-53301071D02*
X201578570Y-53372500D01*
X202221428Y-54229642D02*
X202078570Y-54301071D01*
X202078570Y-54301071D02*
X201721428Y-54301071D01*
X201721428Y-54301071D02*
X201578570Y-54229642D01*
X201578570Y-54229642D02*
X201507142Y-54086785D01*
X201507142Y-54086785D02*
X201507142Y-53943928D01*
X201507142Y-53943928D02*
X201578570Y-53801071D01*
X201578570Y-53801071D02*
X201721428Y-53729642D01*
X201721428Y-53729642D02*
X202078570Y-53729642D01*
X202078570Y-53729642D02*
X202221428Y-53658214D01*
X202864285Y-54229642D02*
X203007142Y-54301071D01*
X203007142Y-54301071D02*
X203292856Y-54301071D01*
X203292856Y-54301071D02*
X203435713Y-54229642D01*
X203435713Y-54229642D02*
X203507142Y-54086785D01*
X203507142Y-54086785D02*
X203507142Y-54015357D01*
X203507142Y-54015357D02*
X203435713Y-53872500D01*
X203435713Y-53872500D02*
X203292856Y-53801071D01*
X203292856Y-53801071D02*
X203078571Y-53801071D01*
X203078571Y-53801071D02*
X202935713Y-53729642D01*
X202935713Y-53729642D02*
X202864285Y-53586785D01*
X202864285Y-53586785D02*
X202864285Y-53515357D01*
X202864285Y-53515357D02*
X202935713Y-53372500D01*
X202935713Y-53372500D02*
X203078571Y-53301071D01*
X203078571Y-53301071D02*
X203292856Y-53301071D01*
X203292856Y-53301071D02*
X203435713Y-53372500D01*
X204792857Y-54301071D02*
X204792857Y-53515357D01*
X204792857Y-53515357D02*
X204721428Y-53372500D01*
X204721428Y-53372500D02*
X204578571Y-53301071D01*
X204578571Y-53301071D02*
X204292857Y-53301071D01*
X204292857Y-53301071D02*
X204149999Y-53372500D01*
X204792857Y-54229642D02*
X204649999Y-54301071D01*
X204649999Y-54301071D02*
X204292857Y-54301071D01*
X204292857Y-54301071D02*
X204149999Y-54229642D01*
X204149999Y-54229642D02*
X204078571Y-54086785D01*
X204078571Y-54086785D02*
X204078571Y-53943928D01*
X204078571Y-53943928D02*
X204149999Y-53801071D01*
X204149999Y-53801071D02*
X204292857Y-53729642D01*
X204292857Y-53729642D02*
X204649999Y-53729642D01*
X204649999Y-53729642D02*
X204792857Y-53658214D01*
X206335714Y-53872500D02*
X207050000Y-53872500D01*
X206192857Y-54301071D02*
X206692857Y-52801071D01*
X206692857Y-52801071D02*
X207192857Y-54301071D01*
X208192856Y-53515357D02*
X208407142Y-53586785D01*
X208407142Y-53586785D02*
X208478571Y-53658214D01*
X208478571Y-53658214D02*
X208549999Y-53801071D01*
X208549999Y-53801071D02*
X208549999Y-54015357D01*
X208549999Y-54015357D02*
X208478571Y-54158214D01*
X208478571Y-54158214D02*
X208407142Y-54229642D01*
X208407142Y-54229642D02*
X208264285Y-54301071D01*
X208264285Y-54301071D02*
X207692856Y-54301071D01*
X207692856Y-54301071D02*
X207692856Y-52801071D01*
X207692856Y-52801071D02*
X208192856Y-52801071D01*
X208192856Y-52801071D02*
X208335714Y-52872500D01*
X208335714Y-52872500D02*
X208407142Y-52943928D01*
X208407142Y-52943928D02*
X208478571Y-53086785D01*
X208478571Y-53086785D02*
X208478571Y-53229642D01*
X208478571Y-53229642D02*
X208407142Y-53372500D01*
X208407142Y-53372500D02*
X208335714Y-53443928D01*
X208335714Y-53443928D02*
X208192856Y-53515357D01*
X208192856Y-53515357D02*
X207692856Y-53515357D01*
D12*
%TO.C,D1*%
X112030875Y-69078925D02*
X108940875Y-69078925D01*
X108941045Y-69078925D02*
G75*
G03*
X110486337Y-74628925I1544830J-2560000D01*
G01*
X110485413Y-74628924D02*
G75*
G03*
X112030705Y-69078926I462J2989999D01*
G01*
X112985875Y-71638925D02*
G75*
G03*
X112985875Y-71638925I-2500000J0D01*
G01*
%TO.C,C3*%
X188370000Y-84500000D02*
G75*
G03*
X188370000Y-84500000I-5120000J0D01*
G01*
%TO.C,R2*%
X119000000Y-108040000D02*
X119000000Y-107270000D01*
X117630000Y-100730000D02*
X117630000Y-107270000D01*
X117630000Y-107270000D02*
X120370000Y-107270000D01*
X120370000Y-107270000D02*
X120370000Y-100730000D01*
X120370000Y-100730000D02*
X117630000Y-100730000D01*
X119000000Y-99960000D02*
X119000000Y-100730000D01*
%TO.C,R9*%
X174000000Y-120720000D02*
X174000000Y-119870000D01*
X171380000Y-104130000D02*
X171380000Y-119870000D01*
X171380000Y-119870000D02*
X176620000Y-119870000D01*
X174000000Y-103280000D02*
X174000000Y-104130000D01*
X176620000Y-104130000D02*
X171380000Y-104130000D01*
X176620000Y-119870000D02*
X176620000Y-104130000D01*
%TO.C,R8*%
X174000000Y-85880000D02*
X174000000Y-85030000D01*
X176620000Y-85030000D02*
X176620000Y-69290000D01*
X171380000Y-85030000D02*
X176620000Y-85030000D01*
X176620000Y-69290000D02*
X171380000Y-69290000D01*
X174000000Y-68440000D02*
X174000000Y-69290000D01*
X171380000Y-69290000D02*
X171380000Y-85030000D01*
%TO.C,R4*%
X140040000Y-94000000D02*
X139270000Y-94000000D01*
X132730000Y-95370000D02*
X139270000Y-95370000D01*
X139270000Y-92630000D02*
X132730000Y-92630000D01*
X139270000Y-95370000D02*
X139270000Y-92630000D01*
X132730000Y-92630000D02*
X132730000Y-95370000D01*
X131960000Y-94000000D02*
X132730000Y-94000000D01*
%TO.C,J1*%
X181670000Y-58475000D02*
X181670000Y-57145000D01*
X181670000Y-59745000D02*
X181670000Y-64885000D01*
X181670000Y-57145000D02*
X183000000Y-57145000D01*
X181670000Y-59745000D02*
X184330000Y-59745000D01*
X184330000Y-59745000D02*
X184330000Y-64885000D01*
X181670000Y-64885000D02*
X184330000Y-64885000D01*
D10*
%TO.C,TP4*%
X219750000Y-77000000D02*
G75*
G03*
X219750000Y-77000000I-1750000J0D01*
G01*
D12*
%TO.C,C1*%
X106620000Y-92750000D02*
G75*
G03*
X106620000Y-92750000I-2620000J0D01*
G01*
%TO.C,R7*%
X135000000Y-57710000D02*
X135000000Y-58480000D01*
X136370000Y-58480000D02*
X133630000Y-58480000D01*
X136370000Y-65020000D02*
X136370000Y-58480000D01*
X135000000Y-65790000D02*
X135000000Y-65020000D01*
X133630000Y-58480000D02*
X133630000Y-65020000D01*
X133630000Y-65020000D02*
X136370000Y-65020000D01*
D10*
%TO.C,TP2*%
X143750000Y-53000000D02*
G75*
G03*
X143750000Y-53000000I-1750000J0D01*
G01*
D12*
%TO.C,R1*%
X109960000Y-92750000D02*
X110730000Y-92750000D01*
X118040000Y-92750000D02*
X117270000Y-92750000D01*
X117270000Y-91380000D02*
X110730000Y-91380000D01*
X117270000Y-94120000D02*
X117270000Y-91380000D01*
X110730000Y-94120000D02*
X117270000Y-94120000D01*
X110730000Y-91380000D02*
X110730000Y-94120000D01*
%TO.C,R10*%
X103000000Y-63784485D02*
X103000000Y-64554485D01*
X101630000Y-64554485D02*
X101630000Y-71094485D01*
X103000000Y-71864485D02*
X103000000Y-71094485D01*
X104370000Y-71094485D02*
X104370000Y-64554485D01*
X101630000Y-71094485D02*
X104370000Y-71094485D01*
X104370000Y-64554485D02*
X101630000Y-64554485D01*
%TO.C,Q3*%
X151490000Y-120340000D02*
X151490000Y-130580000D01*
X153000000Y-130580000D02*
X148359000Y-130580000D01*
X153000000Y-120340000D02*
X153000000Y-130580000D01*
X153000000Y-127311000D02*
X151490000Y-127311000D01*
X148359000Y-120340000D02*
X148359000Y-130580000D01*
X153000000Y-120340000D02*
X148359000Y-120340000D01*
X153000000Y-123610000D02*
X151490000Y-123610000D01*
%TO.C,J5*%
X87996000Y-116690000D02*
X87996000Y-126810000D01*
X90956000Y-116690000D02*
X90956000Y-126810000D01*
X80795000Y-116450000D02*
X80795000Y-116950000D01*
X90956000Y-116690000D02*
X81035000Y-116690000D01*
X86764000Y-125525000D02*
X86718000Y-125478000D01*
X83095000Y-116690000D02*
X83095000Y-126810000D01*
X81535000Y-116450000D02*
X80795000Y-116450000D01*
X84672000Y-123023000D02*
X84626000Y-122976000D01*
X86970000Y-125320000D02*
X86934000Y-125285000D01*
X81595000Y-116690000D02*
X81595000Y-126810000D01*
X81035000Y-116690000D02*
X81035000Y-126810000D01*
X84456000Y-123216000D02*
X84421000Y-123181000D01*
X90956000Y-126810000D02*
X81035000Y-126810000D01*
X87229999Y-119933999D02*
G75*
G03*
X87230426Y-118566958I-1534992J684000D01*
G01*
X86378999Y-117715001D02*
G75*
G03*
X85011958Y-117714574I-684000J-1534992D01*
G01*
X85011000Y-120785000D02*
G75*
G03*
X86378042Y-120785426I684000J1535000D01*
G01*
X84015001Y-119250000D02*
G75*
G03*
X84160245Y-119933318I1679999J0D01*
G01*
X84160001Y-118566000D02*
G75*
G03*
X84014748Y-119278805I1535000J-683999D01*
G01*
X87375000Y-124250000D02*
G75*
G03*
X87375000Y-124250000I-1680000J0D01*
G01*
%TO.C,Rcmp2*%
X185000000Y-112040000D02*
X185000000Y-111270000D01*
X186370000Y-111270000D02*
X186370000Y-104730000D01*
X186370000Y-104730000D02*
X183630000Y-104730000D01*
X183630000Y-111270000D02*
X186370000Y-111270000D01*
X183630000Y-104730000D02*
X183630000Y-111270000D01*
X185000000Y-103960000D02*
X185000000Y-104730000D01*
D10*
%TO.C,TP1*%
X104750000Y-84500000D02*
G75*
G03*
X104750000Y-84500000I-1750000J0D01*
G01*
D12*
%TO.C,C2*%
X188120000Y-73000000D02*
G75*
G03*
X188120000Y-73000000I-5120000J0D01*
G01*
%TO.C,D2*%
X95530000Y-65030000D02*
X95530000Y-70470000D01*
X95530000Y-70470000D02*
X98470000Y-70470000D01*
X98470000Y-65810000D02*
X95530000Y-65810000D01*
X97000000Y-71490000D02*
X97000000Y-70470000D01*
X98470000Y-65930000D02*
X95530000Y-65930000D01*
X98470000Y-70470000D02*
X98470000Y-65030000D01*
X98470000Y-66050000D02*
X95530000Y-66050000D01*
X98470000Y-65030000D02*
X95530000Y-65030000D01*
X97000000Y-64010000D02*
X97000000Y-65030000D01*
%TO.C,R5*%
X143270000Y-81370000D02*
X143270000Y-78630000D01*
X144040000Y-80000000D02*
X143270000Y-80000000D01*
X136730000Y-81370000D02*
X143270000Y-81370000D01*
X143270000Y-78630000D02*
X136730000Y-78630000D01*
X135960000Y-80000000D02*
X136730000Y-80000000D01*
X136730000Y-78630000D02*
X136730000Y-81370000D01*
%TO.C,Ccmp2*%
X144130000Y-128120000D02*
X144195000Y-128120000D01*
X146370000Y-128120000D02*
X146370000Y-124880000D01*
X144130000Y-128120000D02*
X144130000Y-124880000D01*
X146305000Y-124880000D02*
X146370000Y-124880000D01*
X146305000Y-128120000D02*
X146370000Y-128120000D01*
X144130000Y-124880000D02*
X144195000Y-124880000D01*
%TO.C,R6*%
X143270000Y-73630000D02*
X136730000Y-73630000D01*
X136730000Y-76370000D02*
X143270000Y-76370000D01*
X144040000Y-75000000D02*
X143270000Y-75000000D01*
X135960000Y-75000000D02*
X136730000Y-75000000D01*
X143270000Y-76370000D02*
X143270000Y-73630000D01*
X136730000Y-73630000D02*
X136730000Y-76370000D01*
%TO.C,Q4*%
X153000000Y-93400000D02*
X151930000Y-93400000D01*
X153000000Y-90880000D02*
X149510000Y-90880000D01*
X153000000Y-99120000D02*
X149510000Y-99120000D01*
X149830000Y-93400000D02*
X149510000Y-93400000D01*
X150340000Y-96601000D02*
X149510000Y-96601000D01*
X153000000Y-90880000D02*
X153000000Y-99120000D01*
X149510000Y-90880000D02*
X149510000Y-99120000D01*
X153000000Y-96601000D02*
X151420000Y-96601000D01*
%TO.C,R3*%
X121630000Y-107270000D02*
X124370000Y-107270000D01*
X124370000Y-107270000D02*
X124370000Y-100730000D01*
X121630000Y-100730000D02*
X121630000Y-107270000D01*
X123000000Y-108040000D02*
X123000000Y-107270000D01*
X123000000Y-99960000D02*
X123000000Y-100730000D01*
X124370000Y-100730000D02*
X121630000Y-100730000D01*
%TO.C,J3*%
X130670000Y-122330000D02*
X130670000Y-121000000D01*
X133270000Y-122330000D02*
X135870000Y-122330000D01*
X133270000Y-122330000D02*
X133270000Y-119670000D01*
X135870000Y-122330000D02*
X135870000Y-119670000D01*
X132000000Y-122330000D02*
X130670000Y-122330000D01*
X133270000Y-119670000D02*
X135870000Y-119670000D01*
%TO.C,Ccmp3*%
X185925000Y-129120000D02*
X186370000Y-129120000D01*
X183630000Y-129120000D02*
X184075000Y-129120000D01*
X183630000Y-129120000D02*
X183630000Y-122880000D01*
X186370000Y-129120000D02*
X186370000Y-122880000D01*
X183630000Y-122880000D02*
X184075000Y-122880000D01*
X185925000Y-122880000D02*
X186370000Y-122880000D01*
%TO.C,J4*%
X84456000Y-70216000D02*
X84421000Y-70181000D01*
X90956000Y-63690000D02*
X90956000Y-73810000D01*
X81595000Y-63690000D02*
X81595000Y-73810000D01*
X83095000Y-63690000D02*
X83095000Y-73810000D01*
X80795000Y-63450000D02*
X80795000Y-63950000D01*
X90956000Y-73810000D02*
X81035000Y-73810000D01*
X84672000Y-70023000D02*
X84626000Y-69976000D01*
X90956000Y-63690000D02*
X81035000Y-63690000D01*
X86970000Y-72320000D02*
X86934000Y-72285000D01*
X81035000Y-63690000D02*
X81035000Y-73810000D01*
X86764000Y-72525000D02*
X86718000Y-72478000D01*
X81535000Y-63450000D02*
X80795000Y-63450000D01*
X87996000Y-63690000D02*
X87996000Y-73810000D01*
X85011000Y-67785000D02*
G75*
G03*
X86378042Y-67785426I684000J1535000D01*
G01*
X87229999Y-66933999D02*
G75*
G03*
X87230426Y-65566958I-1534992J684000D01*
G01*
X84015001Y-66250000D02*
G75*
G03*
X84160245Y-66933318I1679999J0D01*
G01*
X86378999Y-64715001D02*
G75*
G03*
X85011958Y-64714574I-684000J-1534992D01*
G01*
X84160001Y-65566000D02*
G75*
G03*
X84014748Y-66278805I1535000J-683999D01*
G01*
X87375000Y-71250000D02*
G75*
G03*
X87375000Y-71250000I-1680000J0D01*
G01*
%TO.C,J2*%
X138090000Y-56670000D02*
X138090000Y-59330000D01*
X143230000Y-59330000D02*
X138090000Y-59330000D01*
X143230000Y-56670000D02*
X143230000Y-59330000D01*
X145830000Y-56670000D02*
X145830000Y-58000000D01*
X144500000Y-56670000D02*
X145830000Y-56670000D01*
X143230000Y-56670000D02*
X138090000Y-56670000D01*
D10*
%TO.C,TP3*%
X143725000Y-64000000D02*
G75*
G03*
X143725000Y-64000000I-1750000J0D01*
G01*
D12*
%TO.C,Rcmp1*%
X129730000Y-118120000D02*
X136270000Y-118120000D01*
X136270000Y-115380000D02*
X129730000Y-115380000D01*
X137040000Y-116750000D02*
X136270000Y-116750000D01*
X128960000Y-116750000D02*
X129730000Y-116750000D01*
X129730000Y-115380000D02*
X129730000Y-118120000D01*
X136270000Y-118120000D02*
X136270000Y-115380000D01*
%TO.C,Ccmp1*%
X129055000Y-109370000D02*
X129120000Y-109370000D01*
X126880000Y-109370000D02*
X126945000Y-109370000D01*
X126880000Y-106130000D02*
X126945000Y-106130000D01*
X129055000Y-106130000D02*
X129120000Y-106130000D01*
X126880000Y-109370000D02*
X126880000Y-106130000D01*
X129120000Y-109370000D02*
X129120000Y-106130000D01*
%TO.C,Q1*%
X132334144Y-107348039D02*
X133111961Y-108125856D01*
X133111961Y-108125856D02*
X134002916Y-107234902D01*
X133225098Y-106457084D02*
X132334144Y-107348039D01*
X134002629Y-107234673D02*
G75*
G03*
X133225099Y-106457084I2997371J3774673D01*
G01*
%TO.C,Q2*%
X151490000Y-59420000D02*
X151490000Y-69660000D01*
X153000000Y-66391000D02*
X151490000Y-66391000D01*
X153000000Y-59420000D02*
X153000000Y-69660000D01*
X153000000Y-69660000D02*
X148359000Y-69660000D01*
X153000000Y-62690000D02*
X151490000Y-62690000D01*
X153000000Y-59420000D02*
X148359000Y-59420000D01*
X148359000Y-59420000D02*
X148359000Y-69660000D01*
%TD*%
M02*
